solid tunnel_walls_nobuilding
facet normal 0.000000e+00 0.000000e+00 -1.000000e+00
  outer loop
    vertex -1.000000e+02 -1.991160e+02 -1.620000e-01
    vertex -1.000000e+02 4.008840e+02 -1.620000e-01
    vertex 1.000000e+02 -1.991160e+02 -1.620000e-01
  endloop
endfacet
facet normal 0.000000e+00 0.000000e+00 -1.000000e+00
  outer loop
    vertex 1.000000e+02 -1.991160e+02 -1.620000e-01
    vertex -1.000000e+02 4.008840e+02 -1.620000e-01
    vertex 1.000000e+02 4.008840e+02 -1.620000e-01
  endloop
endfacet
facet normal 0.000000e+00 1.000000e+00 -0.000000e+00
  outer loop
    vertex 1.000000e+02 4.008840e+02 -1.620000e-01
    vertex -1.000000e+02 4.008840e+02 -1.620000e-01
    vertex 1.000000e+02 4.008840e+02 1.998380e+02
  endloop
endfacet
facet normal 0.000000e+00 1.000000e+00 0.000000e+00
  outer loop
    vertex -1.000000e+02 4.008840e+02 -1.620000e-01
    vertex -1.000000e+02 4.008840e+02 1.998380e+02
    vertex 1.000000e+02 4.008840e+02 1.998380e+02
  endloop
endfacet
facet normal -0.000000e+00 0.000000e+00 1.000000e+00
  outer loop
    vertex -1.000000e+02 4.008840e+02 1.998380e+02
    vertex -1.000000e+02 -1.991160e+02 1.998380e+02
    vertex 1.000000e+02 4.008840e+02 1.998380e+02
  endloop
endfacet
facet normal 0.000000e+00 0.000000e+00 1.000000e+00
  outer loop
    vertex 1.000000e+02 4.008840e+02 1.998380e+02
    vertex -1.000000e+02 -1.991160e+02 1.998380e+02
    vertex 1.000000e+02 -1.991160e+02 1.998380e+02
  endloop
endfacet
facet normal 0.000000e+00 -1.000000e+00 0.000000e+00
  outer loop
    vertex -1.000000e+02 -1.991160e+02 1.998380e+02
    vertex 1.000000e+02 -1.991160e+02 -1.620000e-01
    vertex 1.000000e+02 -1.991160e+02 1.998380e+02
  endloop
endfacet
facet normal 0.000000e+00 -1.000000e+00 0.000000e+00
  outer loop
    vertex -1.000000e+02 -1.991160e+02 1.998380e+02
    vertex -1.000000e+02 -1.991160e+02 -1.620000e-01
    vertex 1.000000e+02 -1.991160e+02 -1.620000e-01
  endloop
endfacet
facet normal -1.000000e+00 0.000000e+00 0.000000e+00
  outer loop
    vertex -1.000000e+02 4.008840e+02 -1.620000e-01
    vertex -1.000000e+02 -1.991160e+02 -1.620000e-01
    vertex -1.000000e+02 4.008840e+02 1.998380e+02
  endloop
endfacet
facet normal -1.000000e+00 0.000000e+00 0.000000e+00
  outer loop
    vertex -1.000000e+02 -1.991160e+02 -1.620000e-01
    vertex -1.000000e+02 -1.991160e+02 1.998380e+02
    vertex -1.000000e+02 4.008840e+02 1.998380e+02
  endloop
endfacet
facet normal 1.000000e+00 0.000000e+00 0.000000e+00
  outer loop
    vertex 1.000000e+02 -1.991160e+02 -1.620000e-01
    vertex 1.000000e+02 4.008840e+02 -1.620000e-01
    vertex 1.000000e+02 4.008840e+02 1.998380e+02
  endloop
endfacet
facet normal 1.000000e+00 -0.000000e+00 0.000000e+00
  outer loop
    vertex 1.000000e+02 -1.991160e+02 1.998380e+02
    vertex 1.000000e+02 -1.991160e+02 -1.620000e-01
    vertex 1.000000e+02 4.008840e+02 1.998380e+02
  endloop
endfacet
endsolid tunnel_walls_nobuilding
