solid patch_2_0
 facet normal -1.0 0.0 0.0
  outer loop
   vertex -100.0 400.88403125 -0.162
   vertex -100.0 -199.11596875 -0.162
   vertex -100.0 400.88403125 199.838
  endloop
 endfacet
 facet normal -1.0 0.0 0.0
  outer loop
   vertex -100.0 -199.11596875 -0.162
   vertex -100.0 -199.11596875 199.838
   vertex -100.0 400.88403125 199.838
  endloop
 endfacet
 facet normal 1.0 0.0 0.0
  outer loop
   vertex 100.0 -199.11596875 -0.162
   vertex 100.0 400.88403125 -0.162
   vertex 100.0 400.88403125 199.838
  endloop
 endfacet
 facet normal 1.0 -0.0 0.0
  outer loop
   vertex 100.0 -199.11596875 199.838
   vertex 100.0 -199.11596875 -0.162
   vertex 100.0 400.88403125 199.838
  endloop
 endfacet
 facet normal -0.0 0.0 1.0
  outer loop
   vertex -100.0 400.88403125 199.838
   vertex -100.0 -199.11596875 199.838
   vertex 100.0 400.88403125 199.838
  endloop
 endfacet
 facet normal 0.0 0.0 1.0
  outer loop
   vertex 100.0 400.88403125 199.838
   vertex -100.0 -199.11596875 199.838
   vertex 100.0 -199.11596875 199.838
  endloop
 endfacet
endsolid patch_2_0
